<svg xmlns="http://www.w3.org/2000/svg" width="1200" height="420" viewBox="0 0 1200 420" role="img" aria-labelledby="hero-title hero-desc">
  <!-- Chinese artwork -->
  <title id="hero-title">StudyPulse — local-first learning workspace</title>
  <desc id="hero-desc">A warm editorial illustration showing StudyPulse turning local study records into review, trends, and optional Agent work.</desc>

  <rect width="1200" height="420" rx="30" fill="#f5f2ea"/>
  <path d="M648 0v420" stroke="#ded8cb" stroke-width="1" opacity=".7"/>
  <path d="M56 336h536" stroke="#ded8cb" stroke-width="1"/>
  <circle cx="1086" cy="60" r="150" fill="#efebe1" opacity=".72"/>
  <circle cx="1086" cy="60" r="104" fill="none" stroke="#ded8cb" stroke-width="1" stroke-dasharray="4 9"/>

  <g id="identity" transform="translate(64 54)">
    <text x="0" y="0" fill="#526c58" font-family="ui-monospace, SFMono-Regular, Menlo, monospace" font-size="16" font-weight="700" letter-spacing="2.6">LOCAL-FIRST / STUDY WORKSPACE</text>
    <text x="0" y="86" fill="#25241f" font-family="Georgia, 'Songti SC', serif" font-size="78" font-weight="500" letter-spacing="-2.8">StudyPulse</text>
    <text x="0" y="136" fill="#25241f" font-family="'PingFang SC', 'Microsoft YaHei', sans-serif" font-size="34" font-weight="600">把学习记录，放在一个</text>
    <text x="0" y="178" fill="#25241f" font-family="'PingFang SC', 'Microsoft YaHei', sans-serif" font-size="34" font-weight="600">可以回来的地方。</text>
    <text x="0" y="230" fill="#777267" font-family="'PingFang SC', 'Microsoft YaHei', sans-serif" font-size="20">任务 · 复习 · 趋势 · 资料库 · Agent</text>
    <text x="0" y="306" fill="#777267" font-family="ui-monospace, SFMono-Regular, Menlo, monospace" font-size="18">React + Tauri 2 + Rust Core</text>
    <circle cx="298" cy="300" r="5" fill="#bd8069"/>
    <text x="316" y="306" fill="#777267" font-family="ui-monospace, SFMono-Regular, Menlo, monospace" font-size="18">macOS / Windows</text>
  </g>

  <g id="workspace-proof" transform="translate(704 50)">
    <rect width="432" height="320" rx="24" fill="#fcfaf5" stroke="#ded8cb" stroke-width="1.5"/>
    <rect x="1" y="1" width="430" height="48" rx="23" fill="#efebe1"/>
    <circle cx="27" cy="25" r="6" fill="#7f9a80"/>
    <text x="46" y="31" fill="#526c58" font-family="ui-monospace, SFMono-Regular, Menlo, monospace" font-size="15" font-weight="700" letter-spacing="1.6">TODAY / WORKSPACE</text>
    <text x="354" y="31" fill="#777267" font-family="ui-monospace, SFMono-Regular, Menlo, monospace" font-size="14">LOCAL</text>

    <path d="M48 91v170" stroke="#ded8cb" stroke-width="2"/>
    <circle cx="48" cy="96" r="9" fill="#526c58"/>
    <circle cx="48" cy="171" r="9" fill="#bd8069"/>
    <circle cx="48" cy="246" r="9" fill="#8d7482"/>

    <g transform="translate(78 78)">
      <text x="0" y="0" fill="#25241f" font-family="ui-monospace, SFMono-Regular, Menlo, monospace" font-size="20" font-weight="700">TASKS</text>
      <text x="0" y="25" fill="#777267" font-family="'PingFang SC', 'Microsoft YaHei', sans-serif" font-size="18">下一件有用的事</text>
      <path d="M0 45h186" stroke="#ded8cb" stroke-width="1"/>
    </g>
    <g transform="translate(78 153)">
      <text x="0" y="0" fill="#25241f" font-family="ui-monospace, SFMono-Regular, Menlo, monospace" font-size="20" font-weight="700">REVIEW</text>
      <text x="0" y="25" fill="#777267" font-family="'PingFang SC', 'Microsoft YaHei', sans-serif" font-size="18">Again · Hard · Good · Easy</text>
      <path d="M0 45h186" stroke="#ded8cb" stroke-width="1"/>
    </g>
    <g transform="translate(78 228)">
      <text x="0" y="0" fill="#25241f" font-family="ui-monospace, SFMono-Regular, Menlo, monospace" font-size="20" font-weight="700">AGENT</text>
      <text x="0" y="25" fill="#777267" font-family="'PingFang SC', 'Microsoft YaHei', sans-serif" font-size="18">看得见的工作时间线</text>
    </g>

    <g transform="translate(282 78)">
      <text x="0" y="0" fill="#777267" font-family="ui-monospace, SFMono-Regular, Menlo, monospace" font-size="14" letter-spacing="1.2">PULSE</text>
      <path d="M0 64h22l11-25 18 44 20-72 21 96 20-57 18 24h27" fill="none" stroke="#bd8069" stroke-width="4" stroke-linecap="round" stroke-linejoin="round"/>
      <path d="M0 112h154" stroke="#ded8cb" stroke-width="1"/>
      <circle cx="116" cy="87" r="5" fill="#526c58"/>
      <circle cx="92" cy="25" r="5" fill="#8d7482"/>
    </g>

    <g transform="translate(282 234)">
      <path d="M0 16c15-10 35-12 58 0 20 11 39 11 58 0" fill="none" stroke="#526c58" stroke-width="7" stroke-linecap="round"/>
      <path d="M0 62c15 10 35 12 58 0 20-11 39-11 58 0" fill="none" stroke="#526c58" stroke-width="7" stroke-linecap="round"/>
      <path d="M0 16v46M116 16v46" stroke="#526c58" stroke-width="7" stroke-linecap="round"/>
      <path d="M14 39h23l8-15 12 31 14-36 13 29 10-9h22" fill="none" stroke="#bd8069" stroke-width="4" stroke-linecap="round" stroke-linejoin="round"/>
    </g>
  </g>
</svg>
